<?xml version="1.0" encoding="utf-8"?><svg xmlns="http://www.w3.org/2000/svg" xmlns:xlink="http://www.w3.org/1999/xlink"><symbol viewBox="0 0 24 24" id="m-cake" xmlns="http://www.w3.org/2000/svg"><path d="M12 6a2 2 0 002-2c0-.38-.1-.73-.29-1.03L12 0l-1.71 2.97c-.19.3-.29.65-.29 1.03 0 1.1.9 2 2 2zm4.6 9.99l-1.07-1.07-1.08 1.07c-1.3 1.3-3.58 1.31-4.89 0l-1.07-1.07-1.09 1.07C6.75 16.64 5.88 17 4.96 17c-.73 0-1.4-.23-1.96-.61V21c0 .55.45 1 1 1h16c.55 0 1-.45 1-1v-4.61c-.56.38-1.23.61-1.96.61-.92 0-1.79-.36-2.44-1.01zM18 9h-5V7h-2v2H6c-1.66 0-3 1.34-3 3v1.54c0 1.08.88 1.96 1.96 1.96.52 0 1.02-.2 1.38-.57l2.14-2.13 2.13 2.13c.74.74 2.03.74 2.77 0l2.14-2.13 2.13 2.13c.37.37.86.57 1.38.57 1.08 0 1.96-.88 1.96-1.96V12C21 10.34 19.66 9 18 9z"/></symbol><symbol viewBox="0 0 24 24" id="m-deck" xmlns="http://www.w3.org/2000/svg"><path fill="none" d="M0 0h24v24H0z"/><path d="M22 9L12 2 2 9h9v13h2V9z"/><path d="M4.14 12l-1.96.37.82 4.37V22h2l.02-4H7v4h2v-6H4.9zM19.1 16H15v6h2v-4h1.98l.02 4h2v-5.26l.82-4.37-1.96-.37z"/></symbol><symbol viewBox="0 0 24 24" id="m-domain" xmlns="http://www.w3.org/2000/svg"><path d="M12 7V3H2v18h20V7H12zM6 19H4v-2h2v2zm0-4H4v-2h2v2zm0-4H4V9h2v2zm0-4H4V5h2v2zm4 12H8v-2h2v2zm0-4H8v-2h2v2zm0-4H8V9h2v2zm0-4H8V5h2v2zm10 12h-8v-2h2v-2h-2v-2h2v-2h-2V9h8v10zm-2-8h-2v2h2v-2zm0 4h-2v2h2v-2z"/></symbol><symbol viewBox="0 0 24 24" id="m-emoji-emotions" xmlns="http://www.w3.org/2000/svg"><path fill="none" d="M0 0h24v24H0z"/><path d="M11.99 2C6.47 2 2 6.48 2 12s4.47 10 9.99 10C17.52 22 22 17.52 22 12S17.52 2 11.99 2zM8.5 8c.83 0 1.5.67 1.5 1.5S9.33 11 8.5 11 7 10.33 7 9.5 7.67 8 8.5 8zM12 18c-2.28 0-4.22-1.66-5-4h10c-.78 2.34-2.72 4-5 4zm3.5-7c-.83 0-1.5-.67-1.5-1.5S14.67 8 15.5 8s1.5.67 1.5 1.5-.67 1.5-1.5 1.5z"/></symbol><symbol viewBox="0 0 24 24" id="m-emoji-events" xmlns="http://www.w3.org/2000/svg"><path fill="none" d="M0 0h24v24H0z"/><path d="M19 5h-2V3H7v2H5c-1.1 0-2 .9-2 2v1c0 2.55 1.92 4.63 4.39 4.94A5.01 5.01 0 0011 15.9V19H7v2h10v-2h-4v-3.1a5.01 5.01 0 003.61-2.96C19.08 12.63 21 10.55 21 8V7c0-1.1-.9-2-2-2zM7 10.82C5.84 10.4 5 9.3 5 8V7h2v3.82zM19 8c0 1.3-.84 2.4-2 2.82V7h2v1z"/></symbol><symbol viewBox="0 0 24 24" id="m-emoji-flags" xmlns="http://www.w3.org/2000/svg"><path fill="none" d="M0 0h24v24H0z"/><path d="M14 9l-1-2H7V5.72c.6-.34 1-.98 1-1.72 0-1.1-.9-2-2-2s-2 .9-2 2c0 .74.4 1.38 1 1.72V21h2v-4h5l1 2h7V9h-6zm4 8h-4l-1-2H7V9h5l1 2h5v6z"/></symbol><symbol viewBox="0 0 24 24" id="m-emoji-objects" xmlns="http://www.w3.org/2000/svg"><path fill="none" d="M0 0h24v24H0z"/><path d="M12 3c-.46 0-.93.04-1.4.14-2.76.53-4.96 2.76-5.48 5.52-.48 2.61.48 5.01 2.22 6.56.43.38.66.91.66 1.47V19c0 1.1.9 2 2 2h.28a1.98 1.98 0 003.44 0H14c1.1 0 2-.9 2-2v-2.31c0-.55.22-1.09.64-1.46A6.956 6.956 0 0019 10c0-3.87-3.13-7-7-7zm2 16h-4v-1h4v1zm0-2h-4v-1h4v1zm-1.5-5.59V14h-1v-2.59L9.67 9.59l.71-.71L12 10.5l1.62-1.62.71.71-1.83 1.82z"/></symbol><symbol viewBox="0 0 24 24" id="m-emoji-people" xmlns="http://www.w3.org/2000/svg"><path fill="none" d="M0 0h24v24H0z"/><circle cx="12" cy="4" r="2"/><path d="M15.89 8.11C15.5 7.72 14.83 7 13.53 7h-2.54C8.24 6.99 6 4.75 6 2H4c0 3.16 2.11 5.84 5 6.71V22h2v-6h2v6h2V10.05L18.95 14l1.41-1.41-4.47-4.48z"/></symbol><symbol viewBox="0 0 24 24" id="m-emoji-transportation" xmlns="http://www.w3.org/2000/svg"><path fill="none" d="M0 0h24v24H0z"/><path d="M20.57 10.66c-.14-.4-.52-.66-.97-.66h-7.19c-.46 0-.83.26-.98.66L10 14.77l.01 5.51c0 .38.31.72.69.72h.62c.38 0 .68-.38.68-.76V19h8v1.24c0 .38.31.76.69.76h.61c.38 0 .69-.34.69-.72l.01-1.37v-4.14l-1.43-4.11zm-8.16.34h7.19l1.03 3h-9.25l1.03-3zM12 17c-.55 0-1-.45-1-1s.45-1 1-1 1 .45 1 1-.45 1-1 1zm8 0c-.55 0-1-.45-1-1s.45-1 1-1 1 .45 1 1-.45 1-1 1z"/><path d="M14 9h1V3H7v5H2v13h1V9h5V4h6z"/><path d="M5 11h2v2H5zM10 5h2v2h-2zM5 15h2v2H5zM5 19h2v2H5z"/></symbol><symbol viewBox="0 0 24 24" id="m-fireplace" xmlns="http://www.w3.org/2000/svg"><path fill="none" d="M0 0h24v24H0z"/><path d="M2 2v20h20V2H2zm9.86 14.96c.76-.24 1.4-1.04 1.53-1.63.13-.56-.1-1.05-.2-1.6-.08-.46-.07-.85.08-1.28.54 1.21 2.15 1.64 1.98 3.18-.19 1.7-2.11 2.38-3.39 1.33zM20 20h-2v-2h-2.02A4.98 4.98 0 0017 15c0-1.89-1.09-2.85-1.85-3.37C12.2 9.61 13 7 13 7c-6.73 3.57-6.02 7.47-6 8 .03.96.49 2.07 1.23 3H6v2H4V4h16v16z"/></symbol><symbol viewBox="0 0 24 24" id="m-group" xmlns="http://www.w3.org/2000/svg"><path d="M16 11c1.66 0 2.99-1.34 2.99-3S17.66 5 16 5c-1.66 0-3 1.34-3 3s1.34 3 3 3zm-8 0c1.66 0 2.99-1.34 2.99-3S9.66 5 8 5C6.34 5 5 6.34 5 8s1.34 3 3 3zm0 2c-2.33 0-7 1.17-7 3.5V19h14v-2.5c0-2.33-4.67-3.5-7-3.5zm8 0c-.29 0-.62.02-.97.05 1.16.84 1.97 1.97 1.97 3.45V19h6v-2.5c0-2.33-4.67-3.5-7-3.5z"/></symbol><symbol viewBox="0 0 24 24" id="m-group-add" xmlns="http://www.w3.org/2000/svg"><path d="M8 10H5V7H3v3H0v2h3v3h2v-3h3v-2zm10 1c1.66 0 2.99-1.34 2.99-3S19.66 5 18 5c-.32 0-.63.05-.91.14.57.81.9 1.79.9 2.86s-.34 2.04-.9 2.86c.28.09.59.14.91.14zm-5 0c1.66 0 2.99-1.34 2.99-3S14.66 5 13 5c-1.66 0-3 1.34-3 3s1.34 3 3 3zm6.62 2.16c.83.73 1.38 1.66 1.38 2.84v2h3v-2c0-1.54-2.37-2.49-4.38-2.84zM13 13c-2 0-6 1-6 3v2h12v-2c0-2-4-3-6-3z"/></symbol><symbol viewBox="0 0 24 24" id="m-location-city" xmlns="http://www.w3.org/2000/svg"><path d="M15 11V5l-3-3-3 3v2H3v14h18V11h-6zm-8 8H5v-2h2v2zm0-4H5v-2h2v2zm0-4H5V9h2v2zm6 8h-2v-2h2v2zm0-4h-2v-2h2v2zm0-4h-2V9h2v2zm0-4h-2V5h2v2zm6 12h-2v-2h2v2zm0-4h-2v-2h2v2z"/></symbol><symbol viewBox="0 0 24 24" id="m-mood" xmlns="http://www.w3.org/2000/svg"><path d="M11.99 2C6.47 2 2 6.48 2 12s4.47 10 9.99 10C17.52 22 22 17.52 22 12S17.52 2 11.99 2zM12 20c-4.42 0-8-3.58-8-8s3.58-8 8-8 8 3.58 8 8-3.58 8-8 8zm3.5-9c.83 0 1.5-.67 1.5-1.5S16.33 8 15.5 8 14 8.67 14 9.5s.67 1.5 1.5 1.5zm-7 0c.83 0 1.5-.67 1.5-1.5S9.33 8 8.5 8 7 8.67 7 9.5 7.67 11 8.5 11zm3.5 6.5c2.33 0 4.31-1.46 5.11-3.5H6.89c.8 2.04 2.78 3.5 5.11 3.5z"/></symbol><symbol viewBox="0 0 24 24" id="m-mood-bad" xmlns="http://www.w3.org/2000/svg"><path d="M11.99 2C6.47 2 2 6.48 2 12s4.47 10 9.99 10C17.52 22 22 17.52 22 12S17.52 2 11.99 2zM12 20c-4.42 0-8-3.58-8-8s3.58-8 8-8 8 3.58 8 8-3.58 8-8 8zm3.5-9c.83 0 1.5-.67 1.5-1.5S16.33 8 15.5 8 14 8.67 14 9.5s.67 1.5 1.5 1.5zm-7 0c.83 0 1.5-.67 1.5-1.5S9.33 8 8.5 8 7 8.67 7 9.5 7.67 11 8.5 11zm3.5 3c-2.33 0-4.31 1.46-5.11 3.5h10.22c-.8-2.04-2.78-3.5-5.11-3.5z"/></symbol><symbol viewBox="0 0 24 24" id="m-nights-stay" xmlns="http://www.w3.org/2000/svg"><path fill="none" d="M0 0h24v24H0z"/><path d="M11.1 12.08c-2.33-4.51-.5-8.48.53-10.07C6.27 2.2 1.98 6.59 1.98 12c0 .14.02.28.02.42.62-.27 1.29-.42 2-.42 1.66 0 3.18.83 4.1 2.15A4.01 4.01 0 0111 18c0 1.52-.87 2.83-2.12 3.51.98.32 2.03.5 3.11.5 3.5 0 6.58-1.8 8.37-4.52-2.36.23-6.98-.97-9.26-5.41z"/><path d="M7 16h-.18C6.4 14.84 5.3 14 4 14c-1.66 0-3 1.34-3 3s1.34 3 3 3h3c1.1 0 2-.9 2-2s-.9-2-2-2z"/></symbol><symbol viewBox="0 0 24 24" id="m-notifications" xmlns="http://www.w3.org/2000/svg"><path d="M12 22c1.1 0 2-.9 2-2h-4a2 2 0 002 2zm6-6v-5c0-3.07-1.64-5.64-4.5-6.32V4c0-.83-.67-1.5-1.5-1.5s-1.5.67-1.5 1.5v.68C7.63 5.36 6 7.92 6 11v5l-2 2v1h16v-1l-2-2z"/></symbol><symbol viewBox="0 0 24 24" id="m-notifications-active" xmlns="http://www.w3.org/2000/svg"><path d="M7.58 4.08L6.15 2.65C3.75 4.48 2.17 7.3 2.03 10.5h2a8.445 8.445 0 013.55-6.42zm12.39 6.42h2c-.15-3.2-1.73-6.02-4.12-7.85l-1.42 1.43a8.495 8.495 0 013.54 6.42zM18 11c0-3.07-1.64-5.64-4.5-6.32V4c0-.83-.67-1.5-1.5-1.5s-1.5.67-1.5 1.5v.68C7.63 5.36 6 7.92 6 11v5l-2 2v1h16v-1l-2-2v-5zm-6 11c.14 0 .27-.01.4-.04.65-.14 1.18-.58 1.44-1.18.1-.24.15-.5.15-.78h-4c.01 1.1.9 2 2.01 2z"/></symbol><symbol viewBox="0 0 24 24" id="m-notifications-none" xmlns="http://www.w3.org/2000/svg"><path d="M12 22c1.1 0 2-.9 2-2h-4c0 1.1.9 2 2 2zm6-6v-5c0-3.07-1.63-5.64-4.5-6.32V4c0-.83-.67-1.5-1.5-1.5s-1.5.67-1.5 1.5v.68C7.64 5.36 6 7.92 6 11v5l-2 2v1h16v-1l-2-2zm-2 1H8v-6c0-2.48 1.51-4.5 4-4.5s4 2.02 4 4.5v6z"/></symbol><symbol viewBox="0 0 24 24" id="m-notifications-off" xmlns="http://www.w3.org/2000/svg"><path d="M20 18.69L7.84 6.14 5.27 3.49 4 4.76l2.8 2.8v.01c-.52.99-.8 2.16-.8 3.42v5l-2 2v1h13.73l2 2L21 19.72l-1-1.03zM12 22c1.11 0 2-.89 2-2h-4c0 1.11.89 2 2 2zm6-7.32V11c0-3.08-1.64-5.64-4.5-6.32V4c0-.83-.67-1.5-1.5-1.5s-1.5.67-1.5 1.5v.68c-.15.03-.29.08-.42.12-.1.03-.2.07-.3.11h-.01c-.01 0-.01 0-.02.01-.23.09-.46.2-.68.31 0 0-.01 0-.01.01L18 14.68z"/></symbol><symbol viewBox="0 0 24 24" id="m-notifications-paused" xmlns="http://www.w3.org/2000/svg"><path d="M12 22c1.1 0 2-.9 2-2h-4a2 2 0 002 2zm6-6v-5c0-3.07-1.64-5.64-4.5-6.32V4c0-.83-.67-1.5-1.5-1.5s-1.5.67-1.5 1.5v.68C7.63 5.36 6 7.93 6 11v5l-2 2v1h16v-1l-2-2zm-3.5-6.2l-2.8 3.4h2.8V15h-5v-1.8l2.8-3.4H9.5V8h5v1.8z"/></symbol><symbol viewBox="0 0 24 24" id="m-pages" xmlns="http://www.w3.org/2000/svg"><path d="M3 5v6h5L7 7l4 1V3H5c-1.1 0-2 .9-2 2zm5 8H3v6c0 1.1.9 2 2 2h6v-5l-4 1 1-4zm9 4l-4-1v5h6c1.1 0 2-.9 2-2v-6h-5l1 4zm2-14h-6v5l4-1-1 4h5V5c0-1.1-.9-2-2-2z"/></symbol><symbol viewBox="0 0 24 24" id="m-party-mode" xmlns="http://www.w3.org/2000/svg"><path d="M20 4h-3.17L15 2H9L7.17 4H4c-1.1 0-2 .9-2 2v12c0 1.1.9 2 2 2h16c1.1 0 2-.9 2-2V6c0-1.1-.9-2-2-2zm-8 3c1.63 0 3.06.79 3.98 2H12c-1.66 0-3 1.34-3 3 0 .35.07.69.18 1H7.1A5.002 5.002 0 0112 7zm0 10c-1.63 0-3.06-.79-3.98-2H12c1.66 0 3-1.34 3-3 0-.35-.07-.69-.18-1h2.08a5.002 5.002 0 01-4.9 6z"/></symbol><symbol viewBox="0 0 24 24" id="m-people" xmlns="http://www.w3.org/2000/svg"><path d="M16 11c1.66 0 2.99-1.34 2.99-3S17.66 5 16 5c-1.66 0-3 1.34-3 3s1.34 3 3 3zm-8 0c1.66 0 2.99-1.34 2.99-3S9.66 5 8 5C6.34 5 5 6.34 5 8s1.34 3 3 3zm0 2c-2.33 0-7 1.17-7 3.5V19h14v-2.5c0-2.33-4.67-3.5-7-3.5zm8 0c-.29 0-.62.02-.97.05 1.16.84 1.97 1.97 1.97 3.45V19h6v-2.5c0-2.33-4.67-3.5-7-3.5z"/></symbol><symbol viewBox="0 0 24 24" id="m-people-outline" xmlns="http://www.w3.org/2000/svg"><path d="M16.5 13c-1.2 0-3.07.34-4.5 1-1.43-.67-3.3-1-4.5-1C5.33 13 1 14.08 1 16.25V19h22v-2.75c0-2.17-4.33-3.25-6.5-3.25zm-4 4.5h-10v-1.25c0-.54 2.56-1.75 5-1.75s5 1.21 5 1.75v1.25zm9 0H14v-1.25c0-.46-.2-.86-.52-1.22.88-.3 1.96-.53 3.02-.53 2.44 0 5 1.21 5 1.75v1.25zM7.5 12c1.93 0 3.5-1.57 3.5-3.5S9.43 5 7.5 5 4 6.57 4 8.5 5.57 12 7.5 12zm0-5.5c1.1 0 2 .9 2 2s-.9 2-2 2-2-.9-2-2 .9-2 2-2zm9 5.5c1.93 0 3.5-1.57 3.5-3.5S18.43 5 16.5 5 13 6.57 13 8.5s1.57 3.5 3.5 3.5zm0-5.5c1.1 0 2 .9 2 2s-.9 2-2 2-2-.9-2-2 .9-2 2-2z"/></symbol><symbol viewBox="0 0 24 24" id="m-person" xmlns="http://www.w3.org/2000/svg"><path d="M12 12c2.21 0 4-1.79 4-4s-1.79-4-4-4-4 1.79-4 4 1.79 4 4 4zm0 2c-2.67 0-8 1.34-8 4v2h16v-2c0-2.66-5.33-4-8-4z"/></symbol><symbol viewBox="0 0 24 24" id="m-person-add" xmlns="http://www.w3.org/2000/svg"><path d="M15 12c2.21 0 4-1.79 4-4s-1.79-4-4-4-4 1.79-4 4 1.79 4 4 4zm-9-2V7H4v3H1v2h3v3h2v-3h3v-2H6zm9 4c-2.67 0-8 1.34-8 4v2h16v-2c0-2.66-5.33-4-8-4z"/></symbol><symbol viewBox="0 0 24 24" id="m-person-outline" xmlns="http://www.w3.org/2000/svg"><path d="M12 5.9a2.1 2.1 0 110 4.2 2.1 2.1 0 010-4.2m0 9c2.97 0 6.1 1.46 6.1 2.1v1.1H5.9V17c0-.64 3.13-2.1 6.1-2.1M12 4C9.79 4 8 5.79 8 8s1.79 4 4 4 4-1.79 4-4-1.79-4-4-4zm0 9c-2.67 0-8 1.34-8 4v3h16v-3c0-2.66-5.33-4-8-4z"/></symbol><symbol viewBox="0 0 24 24" id="m-plus-one" xmlns="http://www.w3.org/2000/svg"><path d="M10 8H8v4H4v2h4v4h2v-4h4v-2h-4zm4.5-1.92V7.9l2.5-.5V18h2V5z"/></symbol><symbol viewBox="0 0 24 24" id="m-poll" xmlns="http://www.w3.org/2000/svg"><path d="M19 3H5c-1.1 0-2 .9-2 2v14c0 1.1.9 2 2 2h14c1.1 0 2-.9 2-2V5c0-1.1-.9-2-2-2zM9 17H7v-7h2v7zm4 0h-2V7h2v10zm4 0h-2v-4h2v4z"/></symbol><symbol viewBox="0 0 24 24" id="m-public" xmlns="http://www.w3.org/2000/svg"><path d="M12 2C6.48 2 2 6.48 2 12s4.48 10 10 10 10-4.48 10-10S17.52 2 12 2zm-1 17.93c-3.95-.49-7-3.85-7-7.93 0-.62.08-1.21.21-1.79L9 15v1c0 1.1.9 2 2 2v1.93zm6.9-2.54c-.26-.81-1-1.39-1.9-1.39h-1v-3c0-.55-.45-1-1-1H8v-2h2c.55 0 1-.45 1-1V7h2c1.1 0 2-.9 2-2v-.41c2.93 1.19 5 4.06 5 7.41 0 2.08-.8 3.97-2.1 5.39z"/></symbol><symbol viewBox="0 0 24 24" id="m-school" xmlns="http://www.w3.org/2000/svg"><path d="M5 13.18v4L12 21l7-3.82v-4L12 17l-7-3.82zM12 3L1 9l11 6 9-4.91V17h2V9L12 3z"/></symbol><symbol viewBox="0 0 24 24" id="m-sentiment-dissatisfied" xmlns="http://www.w3.org/2000/svg"><circle cx="15.5" cy="9.5" r="1.5"/><circle cx="8.5" cy="9.5" r="1.5"/><path d="M11.99 2C6.47 2 2 6.48 2 12s4.47 10 9.99 10C17.52 22 22 17.52 22 12S17.52 2 11.99 2zM12 20c-4.42 0-8-3.58-8-8s3.58-8 8-8 8 3.58 8 8-3.58 8-8 8zm0-6c-2.33 0-4.32 1.45-5.12 3.5h1.67c.69-1.19 1.97-2 3.45-2s2.75.81 3.45 2h1.67c-.8-2.05-2.79-3.5-5.12-3.5z"/></symbol><symbol viewBox="0 0 24 24" id="m-sentiment-neutral" xmlns="http://www.w3.org/2000/svg"><path d="M9 14h6v1.5H9z"/><circle cx="15.5" cy="9.5" r="1.5"/><circle cx="8.5" cy="9.5" r="1.5"/><path d="M11.99 2C6.47 2 2 6.48 2 12s4.47 10 9.99 10C17.52 22 22 17.52 22 12S17.52 2 11.99 2zM12 20c-4.42 0-8-3.58-8-8s3.58-8 8-8 8 3.58 8 8-3.58 8-8 8z"/></symbol><symbol viewBox="0 0 24 24" id="m-sentiment-satisfied" xmlns="http://www.w3.org/2000/svg"><circle cx="15.5" cy="9.5" r="1.5"/><circle cx="8.5" cy="9.5" r="1.5"/><path d="M11.99 2C6.47 2 2 6.48 2 12s4.47 10 9.99 10C17.52 22 22 17.52 22 12S17.52 2 11.99 2zM12 20c-4.42 0-8-3.58-8-8s3.58-8 8-8 8 3.58 8 8-3.58 8-8 8zm0-4c-1.48 0-2.75-.81-3.45-2H6.88a5.495 5.495 0 0010.24 0h-1.67c-.7 1.19-1.97 2-3.45 2z"/></symbol><symbol viewBox="0 0 24 24" id="m-sentiment-very-dissatisfied" xmlns="http://www.w3.org/2000/svg"><path d="M11.99 2C6.47 2 2 6.47 2 12s4.47 10 9.99 10S22 17.53 22 12 17.52 2 11.99 2zM12 20c-4.42 0-8-3.58-8-8s3.58-8 8-8 8 3.58 8 8-3.58 8-8 8zm4.18-12.24l-1.06 1.06-1.06-1.06L13 8.82l1.06 1.06L13 10.94 14.06 12l1.06-1.06L16.18 12l1.06-1.06-1.06-1.06 1.06-1.06zM7.82 12l1.06-1.06L9.94 12 11 10.94 9.94 9.88 11 8.82 9.94 7.76 8.88 8.82 7.82 7.76 6.76 8.82l1.06 1.06-1.06 1.06zM12 14c-2.33 0-4.31 1.46-5.11 3.5h10.22c-.8-2.04-2.78-3.5-5.11-3.5z"/></symbol><symbol viewBox="0 0 24 24" id="m-sentiment-very-satisfied" xmlns="http://www.w3.org/2000/svg"><path d="M11.99 2C6.47 2 2 6.47 2 12s4.47 10 9.99 10S22 17.53 22 12 17.52 2 11.99 2zM12 20c-4.42 0-8-3.58-8-8s3.58-8 8-8 8 3.58 8 8-3.58 8-8 8zm1-10.06L14.06 11l1.06-1.06L16.18 11l1.06-1.06-2.12-2.12zm-4.12 0L9.94 11 11 9.94 8.88 7.82 6.76 9.94 7.82 11zM12 17.5c2.33 0 4.31-1.46 5.11-3.5H6.89c.8 2.04 2.78 3.5 5.11 3.5z"/></symbol><symbol viewBox="0 0 24 24" id="m-share" xmlns="http://www.w3.org/2000/svg"><path d="M18 16.08c-.76 0-1.44.3-1.96.77L8.91 12.7c.05-.23.09-.46.09-.7s-.04-.47-.09-.7l7.05-4.11c.54.5 1.25.81 2.04.81 1.66 0 3-1.34 3-3s-1.34-3-3-3-3 1.34-3 3c0 .24.04.47.09.7L8.04 9.81C7.5 9.31 6.79 9 6 9c-1.66 0-3 1.34-3 3s1.34 3 3 3c.79 0 1.5-.31 2.04-.81l7.12 4.16c-.05.21-.08.43-.08.65 0 1.61 1.31 2.92 2.92 2.92 1.61 0 2.92-1.31 2.92-2.92s-1.31-2.92-2.92-2.92z"/></symbol><symbol viewBox="0 0 24 24" id="m-sports" xmlns="http://www.w3.org/2000/svg"><path fill="none" d="M0 0h24v24H0z"/><path d="M11.23 6c-1.66 0-3.22.66-4.36 1.73C6.54 6.73 5.61 6 4.5 6a2.5 2.5 0 000 5c.21 0 .41-.03.61-.08-.05.25-.09.51-.1.78a6.006 6.006 0 006.68 6.27c2.55-.28 4.68-2.26 5.19-4.77.15-.71.15-1.4.06-2.06-.09-.6.38-1.13.99-1.13H22V6H11.23zM4.5 9c-.28 0-.5-.22-.5-.5s.22-.5.5-.5.5.22.5.5-.22.5-.5.5zm6.5 6c-1.66 0-3-1.34-3-3s1.34-3 3-3 3 1.34 3 3-1.34 3-3 3z"/><circle cx="11" cy="12" r="2"/></symbol><symbol viewBox="0 0 24 24" id="m-sports-basketball" xmlns="http://www.w3.org/2000/svg"><path fill="none" d="M0 0h24v24H0z"/><path d="M17.09 11h4.86a9.951 9.951 0 00-1.54-4.4 5.987 5.987 0 00-3.32 4.4zM6.91 11a5.987 5.987 0 00-3.32-4.4A9.951 9.951 0 002.05 11h4.86zM15.07 11a7.994 7.994 0 014.06-6A9.969 9.969 0 0013 2.05V11h2.07zM8.93 11H11V2.05A9.943 9.943 0 004.87 5a7.994 7.994 0 014.06 6zM15.07 13H13v8.95A9.943 9.943 0 0019.13 19a7.994 7.994 0 01-4.06-6zM3.59 17.4A6.029 6.029 0 006.91 13H2.05c.16 1.61.71 3.11 1.54 4.4zM17.09 13a5.987 5.987 0 003.32 4.4 9.951 9.951 0 001.54-4.4h-4.86zM8.93 13a7.994 7.994 0 01-4.06 6A9.969 9.969 0 0011 21.95V13H8.93z"/></symbol><symbol viewBox="0 0 24 24" id="m-sports-esports" xmlns="http://www.w3.org/2000/svg"><path fill="none" d="M0 0h24v24H0z"/><path d="M21.58 16.09l-1.09-7.66A3.996 3.996 0 0016.53 5H7.47C5.48 5 3.79 6.46 3.51 8.43l-1.09 7.66C2.2 17.63 3.39 19 4.94 19c.68 0 1.32-.27 1.8-.75L9 16h6l2.25 2.25c.48.48 1.13.75 1.8.75 1.56 0 2.75-1.37 2.53-2.91zM11 11H9v2H8v-2H6v-1h2V8h1v2h2v1zm4-1c-.55 0-1-.45-1-1s.45-1 1-1 1 .45 1 1-.45 1-1 1zm2 3c-.55 0-1-.45-1-1s.45-1 1-1 1 .45 1 1-.45 1-1 1z"/></symbol><symbol viewBox="0 0 24 24" id="m-sports-hockey" xmlns="http://www.w3.org/2000/svg"><path fill="none" d="M0 0h24v24H0z"/><path d="M2 17v3h2v-4H3c-.55 0-1 .45-1 1zM9 16H5v4l4.69-.01c.38 0 .72-.21.89-.55l.87-1.9-1.59-3.48L9 16zM21.71 16.29A.997.997 0 0021 16h-1v4h2v-3c0-.28-.11-.53-.29-.71zM13.6 12.84L17.65 4H14.3l-1.76 3.97-.49 1.1-.05.14L9.7 4H6.35l4.05 8.84 1.52 3.32.08.18 1.42 3.1c.17.34.51.55.89.55L19 20v-4h-4l-1.4-3.16z"/></symbol><symbol viewBox="0 0 24 24" id="m-sports-motorsports" xmlns="http://www.w3.org/2000/svg"><path fill="none" d="M0 0h24v24H0z"/><path d="M12 11.39c0-.65-.39-1.23-.98-1.48L5.44 7.55c-1.48 1.68-2.32 3.7-2.8 5.45h7.75c.89 0 1.61-.72 1.61-1.61z"/><path d="M21.96 11.22c-.41-4.41-4.56-7.49-8.98-7.2-2.51.16-4.44.94-5.93 2.04l4.74 2.01c1.33.57 2.2 1.87 2.2 3.32 0 1.99-1.62 3.61-3.61 3.61H2.21C2 16.31 2 17.2 2 17.2v.8c0 1.1.9 2 2 2h10c4.67 0 8.41-4.01 7.96-8.78z"/></symbol><symbol viewBox="0 0 24 24" id="m-sports-tennis" xmlns="http://www.w3.org/2000/svg"><path fill="none" d="M0 0h24v24H0z"/><path d="M19.52 2.49C17.18.15 12.9.62 9.97 3.55c-1.6 1.6-2.52 3.87-2.54 5.46-.02 1.58.26 3.89-1.35 5.5l-4.24 4.24 1.42 1.42 4.24-4.24c1.61-1.61 3.92-1.33 5.5-1.35s3.86-.94 5.46-2.54c2.92-2.93 3.4-7.21 1.06-9.55zm-9.2 9.19c-1.53-1.53-1.05-4.61 1.06-6.72s5.18-2.59 6.72-1.06c1.53 1.53 1.05 4.61-1.06 6.72s-5.18 2.59-6.72 1.06zM18 17c.53 0 1.04.21 1.41.59.78.78.78 2.05 0 2.83-.37.37-.88.58-1.41.58s-1.04-.21-1.41-.59c-.78-.78-.78-2.05 0-2.83.37-.37.88-.58 1.41-.58m0-2a3.998 3.998 0 00-2.83 6.83c.78.78 1.81 1.17 2.83 1.17a3.998 3.998 0 002.83-6.83A3.998 3.998 0 0018 15z"/></symbol><symbol viewBox="0 0 24 24" id="m-sports-volleyball" xmlns="http://www.w3.org/2000/svg"><path fill="none" d="M0 0h24v24H0z"/><path d="M6 4.01C3.58 5.84 2 8.73 2 12c0 1.46.32 2.85.89 4.11L6 14.31V4.01zM11 11.42V2.05c-1.06.11-2.07.38-3 .79v10.32l3-1.74zM12 13.15l-8.11 4.68c.61.84 1.34 1.59 2.18 2.2L15 14.89l-3-1.74zM13 7.96v3.46l8.11 4.68c.42-.93.7-1.93.82-2.98L13 7.96zM8.07 21.2c1.21.51 2.53.8 3.93.8 3.34 0 6.29-1.65 8.11-4.16L17 16.04 8.07 21.2zM21.92 10.81c-.55-4.63-4.26-8.3-8.92-8.76v3.6l8.92 5.16z"/></symbol><symbol viewBox="0 0 24 24" id="m-thumb-down-alt" xmlns="http://www.w3.org/2000/svg"><path fill="none" d="M24 24H0V0h24v24z"/><path d="M22 4h-2c-.55 0-1 .45-1 1v9c0 .55.45 1 1 1h2V4zM2.17 11.12c-.11.25-.17.52-.17.8V13c0 1.1.9 2 2 2h5.5l-.92 4.65c-.05.22-.02.46.08.66.23.45.52.86.88 1.22L10 22l6.41-6.41c.38-.38.59-.89.59-1.42V6.34C17 5.05 15.95 4 14.66 4h-8.1c-.71 0-1.36.37-1.72.97l-2.67 6.15z"/></symbol><symbol viewBox="0 0 24 24" id="m-thumb-up-alt" xmlns="http://www.w3.org/2000/svg"><path fill="none" d="M24 24H0V0h24v24z"/><path d="M2 20h2c.55 0 1-.45 1-1v-9c0-.55-.45-1-1-1H2v11zm19.83-7.12c.11-.25.17-.52.17-.8V11c0-1.1-.9-2-2-2h-5.5l.92-4.65c.05-.22.02-.46-.08-.66a4.8 4.8 0 00-.88-1.22L14 2 7.59 8.41C7.21 8.79 7 9.3 7 9.83v7.84A2.34 2.34 0 009.34 20h8.11c.7 0 1.36-.37 1.72-.97l2.66-6.15z"/></symbol><symbol viewBox="0 0 24 24" id="m-whatshot" xmlns="http://www.w3.org/2000/svg"><path d="M13.5.67s.74 2.65.74 4.8c0 2.06-1.35 3.73-3.41 3.73-2.07 0-3.63-1.67-3.63-3.73l.03-.36C5.21 7.51 4 10.62 4 14c0 4.42 3.58 8 8 8s8-3.58 8-8C20 8.61 17.41 3.8 13.5.67zM11.71 19c-1.78 0-3.22-1.4-3.22-3.14 0-1.62 1.05-2.76 2.81-3.12 1.77-.36 3.6-1.21 4.62-2.58.39 1.29.59 2.65.59 4.04 0 2.65-2.15 4.8-4.8 4.8z"/></symbol></svg>